
<svg version="1.2" xmlns="http://www.w3.org/2000/svg" viewBox="0 0 256 256" width="800" height="800">
	<title>hf-logo-svg</title>
	<style>
		.s0 { fill: #000000 } 
		.s1 { fill: #ffffff } 
	</style>
	<path id="Layer" fill-rule="evenodd" class="s0" d="m230 185c1.7 4.7 1.3 9.7-0.9 14.1-1.6 3.2-3.8 5.6-6.6 7.8-3.3 2.6-7.4 4.9-12.4 7-5.9 2.5-13.2 4.9-16.5 5.8-8.5 2.2-16.6 3.6-24.9 3.6-11.8 0.2-22-2.6-29.2-9.8q-5.7 0.7-11.4 0.7-5.4 0-10.7-0.6c-7.3 7.1-17.4 9.8-29.2 9.7-8.3 0-16.4-1.4-25-3.6-3.2-0.9-10.5-3.3-16.4-5.8-5-2.1-9.1-4.4-12.4-7-2.8-2.2-5-4.6-6.6-7.8-2.2-4.4-2.6-9.4-0.9-14.1-1.5-3.6-1.9-7.7-0.7-12.3 0.5-2 1.4-4 2.5-5.7q-0.3-1.4-0.5-2.8c-0.8-6 1.2-11.4 5.1-15.7 1.9-2.1 4-3.5 6.2-4.5-1.6-6.8-2.4-13.8-2.4-20.8 0-50.3 40.7-91.1 91-91.1 17.3 0 33.4 4.8 47.2 13.2q3.8 2.3 7.3 4.9 1.7 1.3 3.4 2.7 1.7 1.4 3.3 2.9 4.9 4.4 9.1 9.5 1.4 1.7 2.7 3.4 2.6 3.5 4.9 7.3 3.4 5.6 6 11.7 1.7 4.1 3.1 8.4 2 6.5 3 13.2 0.3 2.3 0.6 4.6 0.4 4.6 0.5 9.3c0 6.9-0.8 13.8-2.4 20.6 2.4 0.9 4.7 2.4 6.8 4.7 3.9 4.3 5.9 9.7 5.1 15.7q-0.2 1.4-0.6 2.8c1.2 1.8 2.1 3.7 2.6 5.7 1.2 4.6 0.8 8.7-0.7 12.3zm-8.2-1.2c1-1.5 1.7-3.2 2-5 0.3-1.8 0.2-3.6-0.3-5.3-0.7-2.5-2-4.6-3.9-6.2 0.9-1.4 1.5-3.1 1.7-4.8 0.6-3.7-0.7-7.4-3.4-10.4-2.2-2.4-5.2-3.7-8.6-3.7q-0.6 0-1.2 0.1c2.5-8.2 3.8-16.7 3.8-25.3 0-46.7-37.8-84.5-84.5-84.5-46.7 0-84.5 37.8-84.5 84.5 0 8.6 1.3 17.1 3.8 25.2-3.4 0-6.5 1.3-8.6 3.7-2.8 3-4 6.7-3.5 10.4 0.2 1.7 0.8 3.4 1.7 4.8-1.8 1.6-3.2 3.6-3.9 6.2-0.4 1.7-0.5 3.5-0.2 5.3 0.3 1.8 1 3.5 2 5q-0.3 0.4-0.5 0.9c-1.7 3.1-1.8 6.7-0.3 10.1 2.2 5 7.7 9 18.5 13.3 6.7 2.6 12.9 4.3 12.9 4.4 8.9 2.3 16.9 3.4 23.9 3.4 11.4 0 19.9-3.1 25.3-9.3 9.2 1.5 18.6 1.5 27.8-0.1 5.4 6.3 14 9.4 25.5 9.4 6.9 0 14.9-1.1 23.8-3.4 0.1-0.1 6.2-1.8 12.9-4.4 10.8-4.3 16.3-8.3 18.6-13.3 1.5-3.4 1.4-7-0.3-10.1q-0.2-0.5-0.5-0.9z"/>
	<path id="Layer" fill-rule="evenodd" class="s1" d="m222.3 184.7c1.7 3.1 1.8 6.7 0.3 10.1-2.3 5-7.8 9-18.6 13.3-6.7 2.6-12.8 4.3-12.9 4.4-8.9 2.3-16.9 3.4-23.8 3.4-11.5 0-20.1-3.1-25.5-9.4-9.2 1.6-18.6 1.6-27.8 0.1-5.4 6.2-13.9 9.3-25.3 9.3-7 0-15-1.1-23.9-3.4 0-0.1-6.2-1.8-12.9-4.4-10.8-4.3-16.3-8.3-18.5-13.3-1.5-3.4-1.4-7 0.3-10.1q0.2-0.5 0.5-0.9c-1-1.5-1.7-3.2-2-5-0.3-1.8-0.2-3.6 0.2-5.3 0.7-2.6 2.1-4.6 3.9-6.2-0.9-1.4-1.5-3.1-1.7-4.8-0.5-3.7 0.7-7.4 3.5-10.4 2.1-2.4 5.2-3.7 8.6-3.7-2.5-8.1-3.8-16.6-3.8-25.2 0-46.7 37.8-84.5 84.5-84.5 46.7 0 84.5 37.8 84.5 84.5 0 8.6-1.3 17.1-3.8 25.3q0.6-0.1 1.2-0.1c3.4 0 6.4 1.3 8.6 3.7 2.7 3 4 6.7 3.4 10.4-0.2 1.7-0.8 3.4-1.7 4.8 1.9 1.6 3.2 3.7 3.9 6.2 0.5 1.7 0.6 3.5 0.3 5.3-0.3 1.8-1 3.5-2 5q0.3 0.4 0.5 0.9zm-116.3-8.9c-8.3-8.3-13.1-20.3-13.1-20.3 0 0-1.6-6.4-5.3-6.4q-0.3 0-0.5 0c-4.1 0.7-7.1 11.1 1.4 17.5 5.7 4.3 3.1 7.6-0.3 7.6-1.7 0-3.5-0.8-4.6-2.8-3.3-6-12.3-21.5-17-24.4-1.5-1-2.8-1.5-3.9-1.5-2.4 0-3.6 2.1-2.9 6.3 1.1 6 20.6 20.8 18.7 24-0.4 0.6-0.9 0.8-1.5 0.8-2.7 0-7.1-4.6-7.1-4.6q-0.8-0.7-1.6-1.4c-3.5-3-11.8-10-17.9-12.5-1.4-0.6-2.7-0.9-3.7-0.9-0.9 0-1.7 0.2-2.2 0.8-4.6 4.9 3.4 9.1 14.8 16l1 0.6c10.4 6.3 11.2 8.1 9.7 10.6q0 0.1 0 0.1-0.2 0.2-0.5 0.2c-3.3 0-18.6-12-25.5-12-1.6 0-2.7 0.6-3.1 2.2-2.4 9 25.6 11.6 23.9 17.8-0.3 0.9-0.9 1.3-1.8 1.3-4.1 0-13.5-7.7-18.7-7.7-1.3 0-2.3 0.5-2.9 1.6-3.7 7 25.4 15.3 25.6 15.3 4.8 1.3 13.3 3.2 21.7 3.2 5.2 0 10.4-0.8 14.5-3 2.2-1.2 4-2.8 5.4-4.8q0.8-1.2 1.5-2.4c4.4-7.6 3.3-13.8-4.1-21.2zm37.8-6.2c6.1-6.1 10.1-15 11-17 1.6-5.8 6.1-12.2 13.6-12.2q0.9 0 1.8 0.1c3.3 0.5 6.1 2.4 8.2 5.2 2.2-2.7 4.3-4.9 6.2-6.1 3-1.8 5.9-2.8 8.7-2.8 3.1 0 5.9 1.1 8.1 3.2q0-0.2 0.1-0.5l0.1-0.5q0.1-0.8 0.3-1.5 0.1-0.5 0.2-1.1 0-0.2 0.1-0.5 0-0.2 0.1-0.5v-0.5l0.1-0.5q0.1-0.3 0.1-0.6 0-0.2 0.1-0.5v-0.5l0.1-0.4 0.1-0.8v-0.4q0-0.2 0.1-0.5 0.1-1.6 0.2-3.2v-0.5-0.1q0.1-0.2 0.1-0.5v-0.5q0-0.2 0-0.5 0-0.2 0-0.3 0-0.2 0-0.4 0-0.3 0-0.5v-1c0-41.9-33.9-75.8-75.8-75.8-41.8 0-75.8 33.9-75.8 75.8q0 0.2 0 0.5 0.1 0.2 0.1 0.5 0 0.2 0 0.5 0 0.2 0 0.4v0.4 0.5 0.1 0.5q0 0.3 0 0.6 0.1 0.5 0.1 1.1 0 0 0 0.1 0 0.2 0 0.4l0.1 0.4v0.3q0.1 1.1 0.2 2.2 0 0.3 0.1 0.5v0.6q0.1 0.3 0.1 0.5 0.1 0.7 0.2 1.3 0 0.2 0.1 0.4 0 0 0 0 0.4 2.7 1 5.4v0.1q0.1 0.2 0.1 0.5l0.1-0.1c2.2-2.6 5.4-4.1 8.9-4.1 2.8 0 5.7 1 8.6 2.8 2 1.2 4.1 3.4 6.3 6.1 2-2.8 4.9-4.7 8.1-5.2q1-0.1 1.9-0.1c7.4 0 11.9 6.4 13.6 12.2 0.9 2 4.9 10.9 10.9 17 9.3 9.2 11.6 18.7 7 28.9q0.5 0.1 1 0.1 0.2 0 0.5 0.1 0.3 0 0.5 0h0.4q0.5 0.1 1.1 0.1h0.3q0.2 0 0.3 0.1h0.5 0.1 0.5 0.5 0.4q0.2 0 0.4 0l0.3 0.1q0.8 0 1.5 0h0.6 0.5q0.2 0 0.3 0h0.2q0.2 0 0.3-0.1h0.2 0.4 0.5 0.6q0.2 0 0.5 0h0.1q0.3 0 0.5-0.1h0.1 0.5 0.6l0.4-0.1h0.4 0.4q0.5-0.1 1.1-0.2h0.7l0.5-0.1c-4.5-10.1-2.2-19.6 7-28.8zm71.3 6.1q-0.1-0.2-0.1-0.3-0.1-0.4-0.4-0.7-0.1-0.2-0.2-0.3-0.3-0.4-0.7-0.6-0.3-0.1-0.7-0.2-0.1 0-0.2-0.1-0.4 0-0.9 0c-1.3 0-2.9 0.4-4.7 1.1l-0.3 0.1q-1 0.4-1.8 0.9-0.5 0.2-1 0.4l-0.5 0.3q-1.1 0.5-2.1 1.1-0.9 0.5-1.7 1l-0.5 0.3q-0.4 0.2-0.7 0.4c-2.6 1.5-5.1 3-7.2 4.2l-0.3 0.2q-0.3 0.2-0.5 0.3l-0.2 0.1-0.5 0.3q-0.2 0.1-0.3 0.1c-1.6 0.9-2.8 1.4-3.3 1.2q-0.1 0-0.1 0-0.1 0-0.1-0.1h-0.1q0 0-0.1-0.1v-0.1l-0.1-0.1q-0.1-0.2-0.2-0.3v-0.2q-0.1 0-0.1-0.1 0 0 0-0.1 0-0.1-0.1-0.2 0-0.1 0-0.1 0-0.1 0-0.1 0-0.1 0-0.1-0.1-0.1-0.1-0.1v-0.1q0 0 0 0v-0.3-0.1-0.1q0.1-0.2 0.2-0.5v-0.1l0.1-0.1v-0.1q0-0.1 0.1-0.1 0.1-0.2 0.2-0.4l0.1-0.1q0.1-0.2 0.3-0.5l0.1-0.1q0.2-0.2 0.4-0.4l0.1-0.1q0.1 0 0.1-0.1 0.1-0.1 0.2-0.2l0.2-0.1q0.3-0.3 0.8-0.7 0.3-0.3 0.6-0.5l0.2-0.1q0.5-0.4 1.1-0.9l0.3-0.1 0.2-0.2 0.3-0.2 0.4-0.3h0.1q0.3-0.2 0.5-0.3l0.3-0.2q0.5-0.4 1.1-0.7l0.5-0.4 0.3-0.2q0.9-0.5 1.9-1.1l0.6-0.4c2.3-1.4 4.5-2.7 6.5-3.9q1.4-0.9 2.8-1.8 0.5-0.3 1.1-0.7 0.9-0.6 1.8-1.3 0.2-0.2 0.5-0.4 0.4-0.3 0.8-0.7l0.1-0.1 0.2-0.2q0.1-0.1 0.2-0.1 0.2-0.3 0.4-0.5l0.1-0.1q0.6-0.6 1.1-1.4 0.2-0.4 0.3-0.7c0.3-0.6 0.3-1.3 0.2-2q-0.1-0.3-0.2-0.6l-0.1-0.1q-0.3-0.8-1-1.4v-0.1q0 0-0.1 0-0.1-0.2-0.3-0.3-0.3-0.2-0.7-0.3-0.1 0-0.1 0h-0.1q0 0-0.1-0.1-0.1 0-0.1 0h-0.1q0 0-0.1 0-0.2 0-0.3 0h-0.1q-0.3 0-0.5 0-0.6 0.1-1.1 0.2-0.2 0-0.4 0.1-0.1 0-0.2 0v0.1q-0.2 0-0.4 0.1l-0.4 0.1q-0.2 0.1-0.4 0.2-0.8 0.3-1.6 0.7-0.1 0-0.2 0.1l-0.2 0.1-0.2 0.1q-0.3 0.1-0.5 0.3l-0.4 0.2h-0.1l-0.4 0.3-0.5 0.3-0.3 0.1q-0.3 0.2-0.7 0.4l-0.2 0.2-0.3 0.1q-0.7 0.5-1.4 1l-0.3 0.2q-0.4 0.2-0.8 0.5l-0.3 0.3q-1.4 0.9-2.7 1.9-0.5 0.4-1.1 0.9-0.2 0.1-0.5 0.3-0.5 0.4-1 0.9l-0.4 0.3q-1 0.7-1.8 1.4l-0.4 0.4-0.4 0.3-0.3 0.2q-0.9 0.8-1.6 1.4l-0.1 0.1-0.2 0.2-0.1 0.1q-0.1 0-0.1 0.1l-0.1 0.1q-0.1 0.1-0.2 0.1l-0.1 0.1-0.2 0.2-0.1 0.1h-0.1v0.1l-0.2 0.2-0.1 0.1q-0.1 0.1-0.2 0.2l-0.1 0.1q-0.3 0.2-0.7 0.6l-0.1 0.1-0.2 0.2q-0.5 0.4-1 0.8l-0.3 0.2v0.1q-0.3 0.2-0.5 0.3l-0.2 0.2h-0.1l-0.1 0.1q-0.1 0.1-0.2 0.1l-0.1 0.1q-0.5 0.3-0.9 0.5l-0.2 0.1q0 0-0.1 0.1-0.1 0-0.3 0.1-0.2 0.1-0.5 0.2-0.1 0-0.1 0-0.1 0-0.1 0l-0.1 0.1h-0.1-0.1q0 0 0 0h-0.1-0.1-0.1-0.1q-0.6 0-1.1-0.3-0.1 0-0.1-0.1-0.2-0.2-0.3-0.4-0.1-0.2-0.1-0.3-0.1-0.5 0.2-1.2 0.1-0.3 0.3-0.5c1.4-2.6 5.7-6.8 9.7-10.9q0.5-0.5 0.9-0.9l0.4-0.4 0.4-0.5 0.4-0.4q0.2-0.2 0.4-0.4 0.2-0.3 0.4-0.5l0.2-0.2q0.4-0.4 0.8-0.8l0.2-0.2q0.9-1 1.7-2.1l0.2-0.2q0.5-0.6 0.9-1.3 0.2-0.3 0.4-0.5 0.2-0.3 0.3-0.6 0.3-0.4 0.5-1 0.2-0.3 0.3-0.7 0.1-0.2 0.1-0.4l0.1-0.2q0-0.1 0-0.2 0-0.2 0-0.3 0-0.1 0-0.1 0.1-0.1 0.1-0.2 0 0 0-0.1 0-0.1 0-0.2 0-0.1 0-0.3 0-0.1 0-0.2v-0.1q0-0.1 0-0.2c0.1-1.6-0.3-2.7-1-3.4-1.1-1.1-3.1-1-5.5 0.3q-0.2 0.2-0.4 0.3l-0.1 0.1q-0.9 0.6-1.7 1.4-0.1 0.1-0.2 0.2-0.2 0.2-0.4 0.5l-0.2 0.1-0.2 0.3q-0.1 0.1-0.2 0.2-0.1 0.1-0.2 0.3-0.1 0.1-0.2 0.1l-0.3 0.4q-1 1.3-2 2.6l-0.3 0.5q-0.9 1.2-1.9 2.6l-0.3 0.4q-0.7 1.2-1.5 2.4l-0.1 0.2q-0.3 0.3-0.5 0.7l-0.3 0.5-0.3 0.4q-3.2 5.2-6.1 10.6-0.4 0.6-0.8 1.1-0.1 0.1-0.2 0.2 0 0 0 0-0.1 0.1-0.2 0.2-0.3 0.2-0.6 0.5-0.3 0.1-0.5 0.3-0.2 0-0.3 0.1h-0.2q-0.5 0.3-1.1 0.4-0.1 0-0.1 0h-0.1-0.2-0.1-0.1-0.3-0.2-0.1-0.1-0.1q-0.1 0-0.2 0l-0.1-0.1h-0.1-0.1-0.1l-0.1-0.1q-0.1 0-0.2 0-0.2-0.1-0.5-0.2-0.1-0.1-0.1-0.1-0.3-0.1-0.5-0.3h-0.1q0-0.1-0.1-0.2h-0.1v-0.1q-0.2-0.2-0.4-0.5-0.1-0.2-0.2-0.5c-0.3-1 0-2.4 1.5-4q0.8-0.8 1.7-1.5 0.9-0.6 1.7-1.4 0.8-0.8 1.5-1.8l0.1-0.1q0.3-0.4 0.5-0.8 0.1-0.2 0.2-0.4 0.1-0.2 0.2-0.5 0.2-0.3 0.4-0.6 0-0.2 0.1-0.4 0.7-1.8 0.8-3.8 0-0.4 0-0.8-0.1-0.8-0.2-1.5-0.1-0.9-0.4-1.7-0.1-0.4-0.3-0.7-0.1-0.1-0.1-0.3-0.2-0.3-0.4-0.6-0.2-0.4-0.6-0.8c-0.6-0.7-1.3-1.1-2-1.2q-0.2-0.1-0.3-0.1-0.1 0-0.3 0-0.1 0-0.2 0-0.2 0-0.4 0.1-0.1 0-0.2 0-0.1 0-0.2 0.1c-0.6 0.2-1.2 0.6-1.7 1.1q0 0.1-0.1 0.1-0.1 0.2-0.3 0.4-0.2 0.3-0.4 0.6-0.1 0.1-0.2 0.2-0.3 0.5-0.5 1l-0.1 0.1q-0.3 0.5-0.5 1.2-0.1 0.1-0.1 0.3c-0.3 0.7-0.4 1.2-0.4 1.2 0 0-4.8 12-13 20.3-4.7 4.6-6.8 8.7-6.8 13q0 0.1 0 0.3 0.1 0.1 0.1 0.1 0 0.4 0 0.7v0.1q0 0.1 0 0.2 0.1 0.4 0.2 0.8 0 0.1 0 0.2 0.1 0.4 0.2 0.8 0.1 0.3 0.2 0.7 0 0.1 0.1 0.3 0.1 0.4 0.3 0.8 0 0.1 0 0.2 0.1 0.1 0.2 0.3v0.2q0.3 0.7 0.7 1.3l0.1 0.2 0.1 0.2q0 0.1 0 0.2 0.1 0.1 0.2 0.3l0.1 0.1v0.1q0.1 0.1 0.1 0.2 0.1 0.1 0.1 0.1 0.1 0.2 0.2 0.4h0.1q0.1 0.2 0.2 0.4 0.1 0.2 0.3 0.5 0.2 0.4 0.5 0.7l0.1 0.2q0.2 0.3 0.4 0.6 0.2 0.2 0.4 0.5 0.1 0.1 0.2 0.2 0.2 0.2 0.3 0.3 0.1 0.1 0.2 0.2 0.1 0.1 0.2 0.3 0.1 0.1 0.3 0.2 0.1 0.1 0.2 0.2 0.1 0.1 0.2 0.2 0.2 0.1 0.3 0.2 0.1 0.2 0.2 0.3l0.3 0.1q0.2 0.2 0.4 0.4l0.2 0.1 0.2 0.1 0.2 0.2q0.2 0.1 0.3 0.2l0.2 0.1q0.4 0.3 0.9 0.5l0.2 0.1q0.2 0.1 0.4 0.2 0.1 0.1 0.2 0.1h0.1l0.1 0.1q0.5 0.2 0.9 0.4h0.1l0.2 0.1q0.3 0.1 0.6 0.2l0.2 0.1 0.2 0.1q0.2 0 0.4 0.1l0.3 0.1q0.2 0 0.3 0.1l0.3 0.1h0.1q0.1 0 0.3 0l0.1 0.1q0.3 0.1 0.6 0.1 0.5 0.1 1 0.2h0.1l0.3 0.1q0.4 0.1 0.7 0.1 0.4 0.1 0.7 0.1 0.6 0.1 1.1 0.2 0.6 0 1.1 0.1 0 0 0.1 0 1.4 0.1 2.9 0.1h0.8q0.9 0 1.9 0 2.7-0.1 5.4-0.4h0.1q0.7-0.1 1.4-0.2 0.8-0.1 1.5-0.2h0.1l0.6-0.1c4.2-0.7 8-1.6 10.6-2.3 0.1 0 10-2.8 17.5-6.5q0.3-0.1 0.6-0.3c2.5-1.3 4.8-2.6 6.2-4.1 1.5-1.4 2.1-2.9 1.4-4.4q-0.1-0.1-0.2-0.2-0.3-0.5-0.8-0.9h-0.1q-0.8-0.5-1.9-0.5c-1.5 0-3.4 0.7-5.5 1.6q-1.3 0.7-2.6 1.4c-2.1 1.1-4.3 2.4-6.2 3.3q-0.2 0.1-0.3 0.1-0.6 0.3-1.1 0.5l-0.2 0.1q-0.3 0.1-0.6 0.3c-1.6 0.5-2.8 0.6-3.5-0.1q-0.1-0.1-0.2-0.2-0.1-0.2-0.2-0.4 0-0.1-0.1-0.2c-0.5-2.1 2.2-3.8 6.1-5.4q0.2-0.1 0.5-0.2l0.2-0.1 0.5-0.2 0.6-0.3q0.5-0.2 1.1-0.4l0.5-0.2 0.6-0.2c1.3-0.5 2.6-1 3.9-1.6l0.6-0.2q0.3-0.1 0.5-0.2 0.3-0.2 0.6-0.3l0.2-0.1q0.4-0.2 0.8-0.3c2.4-1.1 4.4-2.3 5.8-3.6q0.1-0.1 0.2-0.3 0.1 0 0.1-0.1 0.3-0.3 0.6-0.7 0.1-0.2 0.2-0.4 0.2-0.3 0.3-0.6v-0.1c0.3-0.7 0.3-1.6 0.1-2.3z"/>
	<path id="Layer" fill-rule="evenodd" class="s0" d="m203.2 124.2q0 0.2 0 0.4v0.1q0 0.1 0 0.3v0.1q0 0.1 0 0.3 0 0.2 0 0.4v0.1q0 0.5-0.1 1v0.1 0.5q0 0.2 0 0.4-0.1 1.2-0.2 2.4 0 0.2 0 0.4-0.1 0.3-0.1 0.5v0.1 0.3l-0.1 0.8-0.1 0.4v0.5l-0.1 0.1q0 0.5-0.1 1l-0.1 0.5v0.4l-0.1 0.1q0 0.3 0 0.5-0.1 0.2-0.1 0.4v0.1q-0.1 0.6-0.2 1.1-0.1 0.5-0.2 1-0.1 0.2-0.1 0.5l-0.1 0.5q-0.1 0.3-0.2 0.5c-2.1-2.1-4.9-3.2-8-3.2-2.9 0-5.8 1-8.7 2.8-1.9 1.2-4 3.4-6.2 6.1-2.1-2.8-4.9-4.7-8.2-5.2q-0.9-0.1-1.8-0.1c-7.5 0-12 6.4-13.7 12.2-0.8 2-4.8 10.9-10.9 17-9.2 9.2-11.5 18.6-7 28.8h-0.4q-1 0.2-1.9 0.2l-0.4 0.1h-0.3-0.5l-0.6 0.1h-0.5-0.1-0.2l-0.2 0.1h-0.2q-0.3 0-0.5 0h-0.6-0.5-0.4-0.2q0 0-0.1 0h-0.2-0.2q-0.1 0-0.3 0.1h-0.4-0.7q-0.8 0-1.7-0.1h-0.1q-0.2 0-0.3 0h-0.1-0.4-0.5-0.5-0.1l-0.4-0.1h-0.2-0.2-0.3q-0.5 0-1.1-0.1h-0.4-0.4-0.1q-0.2-0.1-0.5-0.1-0.5 0-1-0.1c4.6-10.2 2.3-19.7-6.9-28.9-6.1-6.1-10.1-15-11-17-1.7-5.8-6.2-12.2-13.6-12.2q-0.9 0-1.9 0.1c-3.2 0.5-6.1 2.4-8.1 5.2-2.2-2.7-4.3-4.9-6.3-6.1-2.9-1.8-5.8-2.8-8.6-2.8-3.5 0-6.7 1.5-8.9 4.1l-0.1 0.1v-0.4l-0.1-0.1v-0.1q-0.6-2.7-1-5.4l-0.1-0.4q-0.1-0.6-0.2-1.3v-0.1l-0.1-0.4v-0.6l-0.1-0.5q-0.1-1.1-0.2-2.2 0-0.1 0-0.2v-0.1-0.4h-0.1q0-0.3 0-0.5 0-0.3 0-0.5 0-0.3 0-0.6h-0.1q0-0.3 0-0.6v-0.5-0.1-0.5-0.4q0-0.1 0-0.3 0 0 0-0.1v-0.2-0.3q0-0.3-0.1-0.5 0-0.2 0-0.3v-0.2c0-41.9 34-75.8 75.8-75.8 41.9 0 75.8 33.9 75.8 75.8zm-136.2 79.8c-0.2 0-29.3-8.3-25.6-15.2 1.9-3.7 7.9-0.5 13.3 2.5 4.9 2.7 9.3 5.1 10.1 2.2 0.8-2.8-4.6-4.9-10.4-7.2-7.1-2.7-14.8-5.7-13.5-10.6 1.5-5.7 12 0.7 20 5.5 4.7 2.8 8.5 5.1 9.1 4.1 1.6-2.6 0.7-4.4-10.7-11.3q-1.3-0.8-2.6-1.6c-9.9-6-16.4-9.8-12.2-14.4 4.5-5 25.4 14 25.4 14 0 0 6.7 7 8.6 3.8 0.9-1.6-3.5-6.2-8.3-11-4.8-4.9-9.8-10-10.4-13-1.1-6.1 2.2-7.8 6.8-4.8 4.7 2.9 13.7 18.4 17 24.4 3.3 6 13.5 1.6 5-4.8-8.6-6.4-5.6-16.8-1.5-17.4 4.1-0.7 5.9 6.3 5.9 6.3 0 0 4.7 12 13 20.3 8.2 8.2 8.6 14.8 2.6 23.6-8.3 12.2-32.2 7.1-41.6 4.6zm80.3-4.6c-6-8.8-5.6-15.4 2.7-23.6 8.2-8.3 13-20.3 13-20.3 0 0 1.8-7 5.9-6.3 4 0.6 7 11-1.5 17.4-8.6 6.4 1.7 10.8 5 4.8 3.3-6 12.2-21.5 16.9-24.4 4.6-3 7.9-1.3 6.8 4.8-0.5 3-5.6 8.1-10.3 13-4.8 4.8-9.3 9.4-8.3 11 1.9 3.2 8.5-3.8 8.5-3.8 0 0 20.9-19 25.4-14 4.2 4.6-2.2 8.4-12.2 14.4q-1.3 0.8-2.6 1.6c-11.4 6.9-12.3 8.7-10.7 11.3 0.6 1 4.5-1.3 9.1-4.1 8-4.8 18.6-11.2 20.1-5.5 1.3 4.9-6.5 7.9-13.5 10.6-5.9 2.3-11.2 4.4-10.5 7.2 0.9 2.9 5.3 0.5 10.1-2.2 5.5-3 11.4-6.2 13.4-2.5 3.6 6.9-25.4 15.2-25.7 15.2-9.4 2.5-33.3 7.6-41.6-4.6z"/>
	<path id="Layer" fill-rule="evenodd" class="s1" d="m152 102.6c1.2 0.4 2.1 1.7 2.9 2.9 1.2 1.6 2.2 3.1 3.8 2.3 1.9-1 3.5-2.6 4.5-4.5 1-1.9 1.5-4.1 1.3-6.2-0.2-1.6-0.7-3.2-1.5-4.5-0.8-1.4-2-2.6-3.3-3.5-1.3-0.9-2.9-1.5-4.5-1.7-1.5-0.3-3.2-0.2-4.7 0.3-1.6 0.5-3 1.3-4.2 2.3-1.2 1.1-2.1 2.5-2.7 3.9-0.7 1.5-0.9 3.1-0.9 4.8 0.1 1.6 0.5 3.1 1.3 4.6 0.7 1.4 2.4 0.7 4.2 0 1.3-0.5 2.8-1.1 3.8-0.7zm-47.4 0.7c1.7 0.7 3.4 1.4 4.1 0 1-1.9 1.5-4.1 1.2-6.3-0.2-2.1-1-4.1-2.4-5.8-1.4-1.7-3.2-2.9-5.3-3.5-2.6-0.8-5.3-0.6-7.8 0.6-2.4 1.1-4.4 3.2-5.4 5.7-1 2.5-1.1 5.3-0.2 7.8 0.9 2.6 2.8 4.7 5.2 6 1.6 0.8 2.6-0.7 3.8-2.3 0.8-1.2 1.7-2.5 2.9-2.9 1.1-0.4 2.5 0.2 3.9 0.7zm39.5 46c8.1-6.4 11.1-16.9 11.1-23.3 0-5.1-3.4-3.5-8.9-0.8l-0.3 0.2c-5 2.5-11.8 5.8-19.1 5.8-7.4 0-14.1-3.3-19.1-5.8-5.7-2.9-9.3-4.6-9.3 0.6 0 6.6 3.2 17.6 11.9 23.9 1.2-2.3 2.8-4.4 4.8-6.1 2-1.7 4.3-2.9 6.8-3.7 0.9-0.2 1.8 1.3 2.7 2.8 0.9 1.5 1.8 3 2.7 3 1 0 2-1.5 2.9-3 1-1.5 2-3 2.9-2.7 4.7 1.5 8.6 4.8 10.9 9.1z"/>
	<path id="Layer" class="s0" d="m144.1 149.3c-4.2 3.4-9.9 5.6-17.2 5.6-6.9 0-12.3-2-16.5-5 1.2-2.3 2.8-4.4 4.8-6.1 2-1.7 4.3-2.9 6.8-3.7 1.7-0.5 3.5 5.8 5.4 5.8 2 0 4-6.2 5.8-5.7 4.7 1.5 8.6 4.8 10.9 9.1z"/>
	<path id="Layer" fill-rule="evenodd" class="s1" d="m81.2 111.6c-1 0.7-2.1 1.1-3.2 1.2-1.2 0.1-2.4-0.1-3.5-0.5q-1.3-0.5-2.3-1.5-0.9-1-1.5-2.3c-0.4-1.1-0.6-2.3-0.5-3.4 0.1-1.2 0.5-2.3 1.2-3.3 0.7-1.2 1.9-2.1 3.2-2.6 1.2-0.5 2.7-0.7 4-0.4 1.4 0.3 2.7 0.9 3.7 1.9 1 1 1.6 2.3 1.9 3.7 0.3 1.3 0.1 2.8-0.4 4.1-0.5 1.3-1.4 2.4-2.6 3.1zm101.4 0c-1 0.7-2.1 1.1-3.2 1.2-1.2 0.1-2.4-0.1-3.4-0.5q-1.3-0.5-2.3-1.5-1-1-1.6-2.3c-0.4-1.1-0.6-2.3-0.5-3.4 0.1-1.2 0.5-2.3 1.2-3.3 0.6-0.9 1.3-1.6 2.2-2.1 0.9-0.6 1.9-0.9 3-1 1-0.1 2.1 0 3.1 0.4 1 0.3 1.8 0.9 2.6 1.6 1 1 1.7 2.3 1.9 3.7 0.3 1.3 0.2 2.8-0.4 4.1-0.5 1.3-1.4 2.4-2.6 3.1z"/>
</svg>